<svg width="190" height="224" viewBox="0 0 190 224" fill="none" xmlns="http://www.w3.org/2000/svg">
<g clip-path="url(#clip0_15_27)">
<path d="M208.669 160.45L94.9659 224L-18.7375 160.45V0H208.669V160.45Z" fill="#FFFBEF"/>
<path d="M112.703 39H59.501V110H130.501V39H112.703ZM61.2207 40.7197H79.5846C76.6223 42.7057 74.6973 44.8415 72.4395 47.3489C70.1354 49.9081 67.4653 52.8723 62.8757 56.4782C62.3376 56.8998 61.7828 57.29 61.2207 57.645V40.7197ZM128.781 108.28H93.9747C94.694 107.653 95.454 107.126 96.2455 106.677C98.028 105.662 100.005 105.013 102.022 104.465C106.741 103.184 112.751 100.706 118.624 97.644C122.163 95.7985 125.654 93.7404 128.781 91.6046V108.28ZM128.781 88.9123C125.423 91.3125 121.546 93.6369 117.605 95.6913C111.887 98.6721 106.037 101.085 101.445 102.332C99.2855 102.918 97.1534 103.622 95.1563 104.76C93.6104 105.64 92.1662 106.768 90.8866 108.28H71.685C76.4651 96.6343 89.0116 94.7944 100.868 93.0562L101.053 93.0285C104.541 92.5163 113.818 89.7906 118.729 87.3664C120.148 86.6674 121.252 85.9629 121.838 85.2953C122.916 84.0749 122.862 83.0024 121.244 82.1906C120.17 81.6507 117.912 81.3345 114.06 81.364L113.944 81.3714C99.4463 82.9895 91.5024 82.8304 88.1536 81.9206C87.2956 81.6876 86.9091 81.5767 86.9091 81.5675C86.9424 81.3419 87.5304 80.9591 88.553 80.4802C92.0923 78.8178 99.5536 77.3606 107.956 77.7231C108.32 77.7675 117.856 78.8862 128.781 72.4992V88.9123ZM128.781 69.9215C117.869 76.804 108.234 75.5318 108.204 75.5281L108.123 75.5244C99.3261 75.1343 91.4173 76.7023 87.6192 78.4831C85.905 79.2875 84.8713 80.249 84.7234 81.2494C84.544 82.4661 85.4131 83.4665 87.5748 84.0527C91.1399 85.0217 99.3631 85.2177 114.151 83.5664C117.224 83.546 119.07 83.7254 119.979 84.0435C119.536 84.4355 118.755 84.8941 117.753 85.3878C113.019 87.7251 104.088 90.3509 100.733 90.8428L100.548 90.8705C87.7782 92.7419 74.2498 94.726 69.3126 108.28H61.2207V95.4731C62.5983 94.3543 64.1479 93.3576 65.6291 92.4053C69.7693 89.7388 73.4399 87.3775 72.6244 83.2983C72.6152 83.2502 72.6022 83.2021 72.5874 83.1577C70.5755 77.0574 74.8378 73.4978 82.0218 71.1216C88.7508 68.8971 97.943 67.6951 107.139 66.4913C114.791 65.4891 122.446 64.4868 128.781 62.891V69.9215ZM128.781 60.6184C122.483 62.2605 114.667 63.2831 106.854 64.3056C97.538 65.5242 88.2257 66.7428 81.3321 69.0228C72.9221 71.8039 67.9812 76.1328 70.4646 83.779C70.938 86.3623 67.8832 88.3298 64.4364 90.5488C63.3749 91.2311 62.2784 91.9356 61.2207 92.6993V60.2153C62.2507 59.6347 63.2769 58.9727 64.2404 58.2145C68.976 54.494 71.7146 51.4522 74.0797 48.8264C76.9329 45.6606 79.2222 43.1181 83.9985 40.7197H104.87C94.572 46.2209 82.9205 53.0036 76.1341 56.9534L74.7398 57.7652C72.2398 59.2186 70.1946 60.979 69.344 62.4361C68.9039 63.1924 68.7338 63.9303 68.9002 64.6089C69.087 65.3744 69.6343 65.9514 70.607 66.2657C71.9014 66.6818 74.2165 66.6134 77.8556 65.7739C85.5648 63.9931 92.1588 61.7187 98.5735 59.5052C108.074 56.2285 117.182 53.0868 128.781 51.9588V60.6184ZM97.8579 57.4157C91.4802 59.6143 84.925 61.8758 77.3638 63.6214C74.1426 64.3667 72.2231 64.4702 71.2819 64.1651L71.0415 64.0911C71.0212 64.0061 71.0989 63.8156 71.2542 63.5493C71.9217 62.4047 73.6636 60.942 75.8456 59.6735L77.238 58.8636C84.8454 54.4349 98.5735 46.4465 109.598 40.7197H128.781V49.7436C116.821 50.8752 107.54 54.0761 97.8579 57.4157Z" fill="#342F2C"/>
<path d="M42.8035 138.561C43.2264 138.561 43.4378 138.415 43.4378 138.122V127.046C43.4378 126.754 43.2264 126.607 42.8035 126.607V126.168H46.8531V126.607C46.4303 126.607 46.2188 126.754 46.2188 127.046V138.122C46.2188 138.415 46.4303 138.561 46.8531 138.561V139H42.8035V138.561ZM57.8312 136.902C58.5956 136.902 59.2624 136.837 59.8316 136.707C60.4008 136.577 60.8725 136.349 61.2465 136.024C61.6206 135.682 61.8971 135.235 62.076 134.682C62.2711 134.129 62.3687 133.43 62.3687 132.584C62.3687 131.738 62.2711 131.039 62.076 130.486C61.8971 129.933 61.6206 129.494 61.2465 129.169C60.8725 128.827 60.4008 128.591 59.8316 128.461C59.2624 128.331 58.5956 128.266 57.8312 128.266H54.0499V136.902H57.8312ZM58.807 126.168C59.7015 126.168 60.5309 126.298 61.2953 126.558C62.076 126.819 62.7509 127.217 63.3201 127.754C63.8893 128.274 64.3366 128.941 64.6619 129.754C64.9871 130.551 65.1498 131.494 65.1498 132.584C65.1498 133.674 64.9871 134.625 64.6619 135.438C64.3366 136.235 63.8893 136.902 63.3201 137.439C62.7509 137.959 62.076 138.349 61.2953 138.61C60.5309 138.87 59.7015 139 58.807 139H50.7078V138.561C51.0818 138.561 51.2689 138.415 51.2689 138.122V127.046C51.2689 126.754 51.0818 126.607 50.7078 126.607V126.168H58.807ZM80.6573 128.803C80.6573 128.624 80.5841 128.494 80.4378 128.412C80.3077 128.315 80.0718 128.266 79.7303 128.266H71.8262V131.291H76.6077C76.933 131.291 77.1851 131.25 77.364 131.169C77.5429 131.072 77.6323 130.836 77.6323 130.462H78.0714V134.267H77.6323C77.6323 133.893 77.5429 133.657 77.364 133.56C77.1851 133.446 76.933 133.389 76.6077 133.389H71.8262V136.756H79.9743C80.2182 136.756 80.4134 136.699 80.5597 136.585C80.7224 136.471 80.8037 136.317 80.8037 136.121H81.2428V139.464H80.8037C80.8037 139.22 80.7224 139.081 80.5597 139.049C80.4134 139.016 80.2182 139 79.9743 139H68.6061V138.561C68.7199 138.561 68.8175 138.528 68.8988 138.463C68.9964 138.382 69.0452 138.268 69.0452 138.122V127.046C69.0452 126.9 68.9964 126.794 68.8988 126.729C68.8175 126.648 68.7199 126.607 68.6061 126.607V126.168H79.7303C80.0718 126.168 80.3077 126.119 80.4378 126.022C80.5841 125.908 80.6573 125.762 80.6573 125.583H81.0964V128.803H80.6573ZM90.83 125.363H88.7808L91.0007 121.85H94.2941L90.83 125.363ZM92.4888 134.023L90.4396 129.486L88.1465 134.023H92.4888ZM83.2918 138.561C83.5032 138.528 83.6659 138.423 83.7797 138.244C83.9098 138.065 84.0318 137.862 84.1457 137.634L88.6588 128.144C88.7726 127.933 88.8702 127.738 88.9515 127.559C89.0491 127.38 89.0979 127.225 89.0979 127.095C89.0979 126.932 89.041 126.819 88.9271 126.754C88.8133 126.689 88.6913 126.64 88.5612 126.607V126.168H92.684V126.607C92.5702 126.64 92.4563 126.689 92.3425 126.754C92.2286 126.802 92.1717 126.916 92.1717 127.095C92.1717 127.225 92.1961 127.355 92.2449 127.485C92.3099 127.616 92.3994 127.786 92.5132 127.998L97.5874 137.927C97.6688 138.106 97.7745 138.236 97.9046 138.317C98.051 138.398 98.2136 138.48 98.3925 138.561V139H94.0989V138.561C94.164 138.561 94.2453 138.536 94.3429 138.488C94.4405 138.439 94.4892 138.366 94.4892 138.268C94.4892 138.106 94.4242 137.894 94.2941 137.634L93.3671 135.829H87.4146L86.5364 137.561C86.3738 137.902 86.2924 138.146 86.2924 138.293C86.2924 138.471 86.4469 138.561 86.7559 138.561V139H83.2918V138.561ZM113.054 139.464C113.054 139.22 112.973 139.081 112.81 139.049C112.664 139.016 112.468 139 112.224 139H100.612V138.561C101.1 138.561 101.344 138.415 101.344 138.122V127.046C101.344 126.754 101.1 126.607 100.612 126.607V126.168H104.808V126.607C104.353 126.607 104.125 126.754 104.125 127.046V136.756H112.224C112.468 136.756 112.664 136.699 112.81 136.585C112.973 136.471 113.054 136.317 113.054 136.121H113.493V139.464H113.054ZM116.184 138.561C116.493 138.561 116.648 138.415 116.648 138.122V127.046C116.648 126.754 116.493 126.607 116.184 126.607V126.168H120.356V126.607C120.226 126.607 120.161 126.689 120.161 126.851C120.161 126.981 120.324 127.209 120.649 127.534L127.65 134.804V127.046C127.65 126.754 127.439 126.607 127.016 126.607V126.168H130.7V126.607C130.391 126.607 130.236 126.754 130.236 127.046V138.122C130.236 138.415 130.391 138.561 130.7 138.561V139H126.748V138.561C126.959 138.561 127.065 138.488 127.065 138.341C127.065 138.227 126.935 138.04 126.674 137.78L119.234 130.023V138.122C119.234 138.415 119.421 138.561 119.795 138.561V139H116.184V138.561ZM147.101 128.803C147.101 128.624 147.028 128.494 146.882 128.412C146.751 128.315 146.516 128.266 146.174 128.266H138.27V131.291H143.051C143.377 131.291 143.629 131.25 143.808 131.169C143.987 131.072 144.076 130.836 144.076 130.462H144.515V134.267H144.076C144.076 133.893 143.987 133.657 143.808 133.56C143.629 133.446 143.377 133.389 143.051 133.389H138.27V136.756H146.418C146.662 136.756 146.857 136.699 147.003 136.585C147.166 136.471 147.247 136.317 147.247 136.121H147.687V139.464H147.247C147.247 139.22 147.166 139.081 147.003 139.049C146.857 139.016 146.662 139 146.418 139H135.05V138.561C135.164 138.561 135.261 138.528 135.343 138.463C135.44 138.382 135.489 138.268 135.489 138.122V127.046C135.489 126.9 135.44 126.794 135.343 126.729C135.261 126.648 135.164 126.607 135.05 126.607V126.168H146.174C146.516 126.168 146.751 126.119 146.882 126.022C147.028 125.908 147.101 125.762 147.101 125.583H147.54V128.803H147.101Z" fill="#BA9E76"/>
<path d="M73.4301 148.654C73.4301 148.474 73.4037 148.358 73.3508 148.305C73.3085 148.242 73.2027 148.21 73.0335 148.21V148.019H76.8728C77.4968 148.019 78.0362 148.109 78.491 148.289C78.9458 148.469 79.316 148.717 79.6016 149.035C79.8977 149.342 80.1145 149.706 80.252 150.129C80.3895 150.553 80.4583 151.013 80.4583 151.51C80.4583 151.996 80.3895 152.456 80.252 152.89C80.1145 153.313 79.8977 153.683 79.6016 154.001C79.316 154.307 78.9458 154.55 78.491 154.73C78.0362 154.91 77.4968 155 76.8728 155H73.0335V154.81C73.2027 154.81 73.3085 154.783 73.3508 154.73C73.4037 154.667 73.4301 154.545 73.4301 154.365V148.654ZM76.6824 154.112C77.1795 154.112 77.5973 154.043 77.9358 153.905C78.2848 153.768 78.5651 153.583 78.7766 153.35C78.9987 153.107 79.1574 152.832 79.2525 152.525C79.3583 152.208 79.4112 151.869 79.4112 151.51C79.4112 151.15 79.3583 150.817 79.2525 150.51C79.1574 150.193 78.9987 149.918 78.7766 149.685C78.5651 149.442 78.2848 149.252 77.9358 149.114C77.5973 148.977 77.1795 148.908 76.6824 148.908H74.4137V154.112H76.6824ZM83.4937 148.019V148.21C83.3985 148.199 83.3139 148.215 83.2399 148.257C83.1658 148.3 83.1288 148.374 83.1288 148.48C83.1288 148.532 83.15 148.596 83.1923 148.67C83.2346 148.744 83.2716 148.823 83.3033 148.908L85.5561 153.715L87.6186 148.781C87.6397 148.728 87.6609 148.67 87.682 148.606C87.7032 148.543 87.7138 148.49 87.7138 148.448C87.7138 148.289 87.5974 148.21 87.3647 148.21V148.019H88.983V148.21C88.8455 148.21 88.7397 148.294 88.6657 148.464L86.2383 154.223C86.2172 154.276 86.1907 154.339 86.159 154.413C86.1273 154.487 86.1114 154.55 86.1114 154.603C86.1114 154.751 86.2277 154.82 86.4604 154.81V155H84.6201V154.81C84.8105 154.81 84.9057 154.762 84.9057 154.667C84.9057 154.603 84.8845 154.524 84.8422 154.429C84.7999 154.323 84.7417 154.191 84.6677 154.032L82.0976 148.527C82.0447 148.421 81.9812 148.342 81.9072 148.289C81.8437 148.236 81.7485 148.21 81.6216 148.21V148.019H83.4937ZM91.1247 148.654C91.1247 148.474 91.0983 148.358 91.0454 148.305C91.0031 148.242 90.9079 148.21 90.7598 148.21V148.019H97.1534C97.3121 148.019 97.4178 147.993 97.4707 147.94C97.5236 147.877 97.55 147.776 97.55 147.639H97.7404V149.289H97.55C97.55 149.151 97.5236 149.056 97.4707 149.003C97.4178 148.94 97.3121 148.908 97.1534 148.908H92.1718V150.97H95.678C95.8366 150.97 95.9424 150.944 95.9953 150.891C96.0481 150.828 96.0746 150.727 96.0746 150.59H96.265V152.24H96.0746C96.0746 152.102 96.0481 152.007 95.9953 151.954C95.9424 151.89 95.8366 151.859 95.678 151.859H92.1718V154.112H97.3279C97.4866 154.112 97.5923 154.085 97.6452 154.032C97.6981 153.969 97.7245 153.868 97.7245 153.731H97.9149V155.333H97.7245C97.7245 155.196 97.6981 155.106 97.6452 155.063C97.5923 155.021 97.4866 155 97.3279 155H90.7598V154.81C90.9079 154.81 91.0031 154.783 91.0454 154.73C91.0983 154.667 91.1247 154.545 91.1247 154.365V148.654ZM101.839 154.365C101.839 154.545 101.86 154.667 101.902 154.73C101.955 154.783 102.066 154.81 102.235 154.81V155H100.459V154.81C100.628 154.81 100.734 154.783 100.776 154.73C100.829 154.667 100.855 154.545 100.855 154.365V148.654C100.855 148.474 100.829 148.358 100.776 148.305C100.734 148.242 100.628 148.21 100.459 148.21V148.019H105.313C106.011 148.019 106.519 148.194 106.836 148.543C107.154 148.892 107.312 149.368 107.312 149.971C107.312 150.584 107.143 151.05 106.804 151.367C106.477 151.674 106.006 151.838 105.393 151.859L107.138 154.524C107.212 154.64 107.275 154.72 107.328 154.762C107.381 154.794 107.45 154.81 107.534 154.81V155H105.821V154.81C105.937 154.81 106.006 154.804 106.027 154.794C106.059 154.773 106.075 154.736 106.075 154.683C106.075 154.63 106.059 154.577 106.027 154.524C105.995 154.471 105.953 154.397 105.9 154.302L104.345 151.859H101.839V154.365ZM105.218 150.97C105.599 150.97 105.868 150.886 106.027 150.716C106.186 150.547 106.265 150.288 106.265 149.939C106.265 149.558 106.18 149.283 106.011 149.114C105.853 148.934 105.535 148.844 105.059 148.844H101.839V150.97H105.218ZM110.522 148.654C110.522 148.474 110.496 148.358 110.443 148.305C110.4 148.242 110.305 148.21 110.157 148.21V148.019H116.551C116.709 148.019 116.815 147.993 116.868 147.94C116.921 147.877 116.947 147.776 116.947 147.639H117.138V149.289H116.947C116.947 149.151 116.921 149.056 116.868 149.003C116.815 148.94 116.709 148.908 116.551 148.908H111.569V150.97H115.075C115.234 150.97 115.34 150.944 115.393 150.891C115.446 150.828 115.472 150.727 115.472 150.59H115.662V152.24H115.472C115.472 152.102 115.446 152.007 115.393 151.954C115.34 151.89 115.234 151.859 115.075 151.859H111.569V154.112H116.725C116.884 154.112 116.99 154.085 117.043 154.032C117.095 153.969 117.122 153.868 117.122 153.731H117.312V155.333H117.122C117.122 155.196 117.095 155.106 117.043 155.063C116.99 155.021 116.884 155 116.725 155H110.157V154.81C110.305 154.81 110.4 154.783 110.443 154.73C110.496 154.667 110.522 154.545 110.522 154.365V148.654Z" fill="#342F2C"/>
</g>
<defs>
<clipPath id="clip0_15_27">
<rect width="189.932" height="224" fill="white"/>
</clipPath>
</defs>
</svg>
