<svg width="256" height="256" viewBox="0 0 256 256" fill="none" xmlns="http://www.w3.org/2000/svg">
<rect width="256" height="256" fill="#FFFBEF"/>
<path d="M32.0807 157.555C33.6058 157.395 34.5288 157.154 34.8499 156.833C35.2512 156.431 35.4519 155.95 35.4519 155.388V99.2816C35.4519 98.7197 35.2512 98.2783 34.8499 97.9572C34.5288 97.5559 33.6058 97.2749 32.0807 97.1144V95.6696H56.8831V97.1144C55.358 97.2749 54.3948 97.5559 53.9935 97.9572C53.6724 98.2783 53.5119 98.7197 53.5119 99.2816V155.388C53.5119 155.95 53.6724 156.431 53.9935 156.833C54.3948 157.154 55.358 157.395 56.8831 157.555V159H32.0807V157.555ZM114.274 144.793C120.615 144.793 125.191 143.187 128 139.977C130.809 136.686 132.214 132.472 132.214 127.335C132.214 122.198 130.809 118.024 128 114.813C125.191 111.522 120.615 109.877 114.274 109.877H98.9836V144.793H114.274ZM80.9236 99.2816C80.9236 98.7197 80.7229 98.2783 80.3216 97.9572C80.0005 97.5559 79.0775 97.2749 77.5524 97.1144V95.6696H117.525C123.064 95.6696 127.88 96.4723 131.973 98.0776C136.067 99.6829 139.438 101.93 142.087 104.82C144.736 107.629 146.702 110.96 147.986 114.813C149.351 118.666 150.033 122.84 150.033 127.335C150.033 131.428 149.311 135.402 147.866 139.254C146.501 143.027 144.374 146.398 141.485 149.368C138.675 152.258 135.144 154.585 130.89 156.351C126.716 158.117 121.819 159 116.201 159H77.5524V157.555C79.0775 157.395 80.0005 157.154 80.3216 156.833C80.7229 156.431 80.9236 155.95 80.9236 155.388V99.2816ZM182.864 157.555C183.586 157.395 184.068 157.234 184.309 157.074C184.549 156.913 184.67 156.712 184.67 156.472C184.67 156.311 184.349 155.508 183.707 154.064C183.064 152.539 182.222 150.572 181.178 148.164C180.215 145.756 179.051 143.027 177.687 139.977C176.322 136.927 174.917 133.756 173.473 130.465C172.108 127.174 170.703 123.923 169.259 120.713C167.814 117.502 166.489 114.532 165.285 111.803C164.081 109.074 163.038 106.706 162.155 104.7C161.352 102.693 160.79 101.288 160.469 100.486C159.908 99.1211 159.466 98.2381 159.145 97.8368C158.824 97.4355 158.342 97.1947 157.7 97.1144V95.6696H182.382V97.1144C181.419 97.1947 180.777 97.3552 180.456 97.596C180.135 97.8368 179.974 98.1579 179.974 98.5592C179.974 98.8 180.135 99.3217 180.456 100.124C180.857 100.847 181.62 102.452 182.743 104.94C183.947 107.429 185.633 111.041 187.8 115.776C190.048 120.512 193.058 126.974 196.83 135.161C200.442 127.214 203.292 120.913 205.379 116.258C207.546 111.522 209.191 107.91 210.315 105.422C211.519 102.934 212.282 101.248 212.603 100.365C212.924 99.402 213.084 98.7599 213.084 98.4388C213.084 98.0375 212.964 97.7565 212.723 97.596C212.482 97.3552 212.001 97.1947 211.278 97.1144V95.6696H231.987V97.1144C231.505 97.2749 231.104 97.4355 230.783 97.596C230.542 97.7565 230.342 98.1177 230.181 98.6796C230.021 99.1612 229.539 100.325 228.736 102.171C227.934 104.017 226.93 106.305 225.726 109.034C224.603 111.763 223.318 114.813 221.873 118.184C220.509 121.475 219.064 124.847 217.539 128.298C216.094 131.749 214.649 135.121 213.205 138.412C211.84 141.703 210.596 144.632 209.472 147.201C208.429 149.769 207.586 151.896 206.944 153.582C206.302 155.268 205.981 156.191 205.981 156.351C205.981 157.074 206.543 157.435 207.666 157.435V159H182.864V157.555Z" fill="#BA9E76"/>
</svg>
