<svg width="44" height="45" viewBox="0 0 44 45" fill="none" xmlns="http://www.w3.org/2000/svg">
<g clip-path="url(#clip0_15_100)">
<path d="M22 0.984375C9.86941 0.984375 0 10.8538 0 22.9844C0 35.115 9.86941 44.9844 22 44.9844C34.1306 44.9844 44 35.115 44 22.9844C44 10.8538 34.1306 0.984375 22 0.984375ZM22 42.2344C11.3854 42.2344 2.75001 33.599 2.75001 22.9844C2.75001 12.3697 11.3854 3.73439 22 3.73439C32.6146 3.73439 41.25 12.3697 41.25 22.9844C41.25 33.599 32.6146 42.2344 22 42.2344Z" fill="black"/>
<path d="M23.375 9.23438H20.625V23.5537L29.2778 32.2065L31.2222 30.2622L23.375 22.415V9.23438Z" fill="black"/>
</g>
<defs>
<clipPath id="clip0_15_100">
<rect width="44" height="44" fill="white" transform="translate(0 0.984375)"/>
</clipPath>
</defs>
</svg>
