<svg width="94" height="102" viewBox="0 0 94 102" fill="none" xmlns="http://www.w3.org/2000/svg">
<path d="M15.6137 0.555855C15.1715 1.05611 15.1439 1.94547 15.1715 12.729L15.2268 24.3463L14.0385 24.7354C13.099 25.0411 11.7449 26.2084 7.73794 30.1271C1.79659 35.9358 0.718858 37.242 0.304346 39.1875C-0.0825327 41.0496 -0.110167 70.871 0.276712 72.2884C0.691224 73.7336 1.63079 75.0399 2.98486 76.0126L4.20077 76.8464L9.69997 76.9298L15.1992 77.0131V87.8522V98.6635H10.833C6.93655 98.6635 6.38386 98.7191 5.99699 99.1638C5.33377 99.8864 5.41667 101.054 6.13516 101.554C6.68784 101.943 11.2751 101.999 49.7419 101.999C97.1069 101.999 93.9566 102.11 93.9566 100.331C93.9566 98.8859 93.2381 98.6635 88.5126 98.6635H84.2846V50.0544V1.473L83.7043 0.722603L83.1516 0H49.6314C16.7191 0 16.1111 0 15.6137 0.555855ZM81.2172 55.7796L81.2449 98.6635H78.7578H76.2707V53.8064V8.9214L75.6075 8.42113C74.9719 7.89308 74.0876 7.89308 49.5761 8.00425C27.0542 8.08762 24.125 8.171 23.7105 8.5601C23.2683 8.9492 23.2131 9.72739 23.2131 17.5649V26.125L22.1906 25.458C21.6103 25.0689 20.4773 24.6242 19.7035 24.4574L18.2389 24.1239V13.7295V3.3351L49.5485 3.27951L80.8303 3.19614L80.9961 8.05983C81.1067 10.7279 81.1896 32.2115 81.2172 55.7796ZM72.9546 54.8903V98.6635H49.6037H26.2528V87.8244V76.9853H28.1872C31.2823 76.9853 33.2443 75.7903 34.4326 73.2333L35.0958 71.8437V55.9742C35.0958 42.2169 35.0405 39.9101 34.6536 38.6316C34.2668 37.2698 33.7693 36.6861 30.2322 33.0731L26.2528 29.0154V20.0662V11.117H49.6037H72.9546V54.8903ZM20.0628 27.8759C21.0023 28.404 30.6467 37.8534 31.2546 38.7984C31.752 39.6322 31.7797 40.327 31.7797 55.8074V71.9549L31.1441 72.6775C30.7572 73.15 30.0664 73.5113 29.2926 73.678C27.6622 73.9837 7.43396 73.9837 5.80355 73.678C4.97452 73.5113 4.36657 73.1778 3.95206 72.6219L3.31647 71.8437V55.9186C3.31647 43.0506 3.39937 39.8267 3.70335 39.1041C4.09023 38.187 14.3701 27.7925 14.8952 27.7925C15.061 27.7925 15.1992 28.7097 15.2544 30.0715L15.3373 32.3783L14.0385 33.629C12.3528 35.2687 12.0489 36.8529 13.0161 38.8262C13.8727 40.5771 15.1439 41.4109 16.9125 41.4109C19.7588 41.4109 21.334 39.9379 21.4998 37.103C21.5827 35.7134 21.4998 35.2687 20.9471 34.4628C20.5878 33.9347 19.8417 33.2399 19.3167 32.9342L18.3218 32.3783L18.2666 29.9326C18.2113 27.5702 18.2113 27.5146 18.8469 27.5146C19.2061 27.5424 19.7312 27.6814 20.0628 27.8759ZM18.0179 36.0469C18.6811 36.6306 18.6534 37.2976 17.9626 37.9368C17.1612 38.6872 15.9177 38.2147 15.8071 37.1586C15.6413 35.7134 16.9401 35.0464 18.0179 36.0469ZM23.2131 87.8244V98.6635H20.8642H18.5153V87.8244V76.9853H20.8642H23.2131V87.8244Z" fill="black"/>
<path d="M63.1444 49.8599C58.8335 51.8054 59.5243 58.1976 64.1392 59.226C67.1237 59.9208 69.9148 57.5862 69.9148 54.4734C69.9148 50.8882 66.2947 48.4425 63.1444 49.8599ZM66.1565 53.1116C67.0132 53.8064 67.0961 54.807 66.3223 55.5851C65.6038 56.3078 64.5537 56.28 63.8353 55.5296C63.0891 54.7236 63.1444 54.0288 63.9734 53.2228C64.7748 52.389 65.217 52.3612 66.1565 53.1116Z" fill="black"/>
<path d="M10.5842 47.5252C7.40626 48.2478 6.02455 52.0832 7.95895 54.7235C9.8657 57.336 13.6516 57.3637 15.3925 54.7512C17.7967 51.2494 14.7017 46.608 10.5842 47.5252ZM12.5462 51.027C13.4029 51.8886 12.8226 53.6395 11.6896 53.6395C11.0263 53.6395 10.2249 52.8058 10.2249 52.1665C10.2249 51.4439 10.9987 50.5824 11.6343 50.5824C11.9106 50.5824 12.3251 50.7769 12.5462 51.027Z" fill="black"/>
<path d="M20.7814 49.2483C15.1993 57.6416 10.7778 64.7843 10.7778 65.4236C10.7778 65.8682 11.0265 66.2851 11.4411 66.5908C12.0214 66.9521 12.2424 66.9799 12.8228 66.6464C13.2649 66.4241 15.5033 63.2557 18.8194 58.1141C21.721 53.6117 24.2357 49.6374 24.3738 49.3039C24.816 48.3589 24.0146 47.2472 22.9369 47.2472C22.246 47.2472 21.942 47.5252 20.7814 49.2483Z" fill="black"/>
<path d="M21.9696 57.9196C20.8642 58.3921 19.7036 59.7817 19.3167 61.088C18.6811 63.2558 20.0075 65.7293 22.2459 66.5909C23.7934 67.1745 25.1475 66.98 26.4463 65.9794C29.1268 63.9228 28.5741 59.6983 25.4238 58.0864C24.1803 57.4471 23.1578 57.3915 21.9696 57.9196ZM24.733 61.4215C25.1475 61.8661 25.2028 62.1441 24.9817 62.7555C24.4843 64.1729 22.3841 63.7005 22.3841 62.1441C22.3841 60.8656 23.821 60.4209 24.733 61.4215Z" fill="black"/>
</svg>
