<svg width="92" height="92" viewBox="0 0 92 92" fill="none" xmlns="http://www.w3.org/2000/svg">
<path fill-rule="evenodd" clip-rule="evenodd" d="M52.0965 85.4669C62.0027 77.3533 80.5 59.3847 80.5 38.3333C80.5 19.2794 65.0538 3.83325 46 3.83325C26.9462 3.83325 11.5 19.2794 11.5 38.3333C11.5 59.3847 29.9973 77.3533 39.9035 85.4669C43.4951 88.4086 48.5049 88.4086 52.0965 85.4669ZM46 45.9999C52.3513 45.9999 57.5 40.8512 57.5 34.4999C57.5 28.1486 52.3513 22.9999 46 22.9999C39.6487 22.9999 34.5 28.1486 34.5 34.4999C34.5 40.8512 39.6487 45.9999 46 45.9999Z" fill="black"/>
</svg>
