<svg width="110" height="102" viewBox="0 0 110 102" fill="none" xmlns="http://www.w3.org/2000/svg">
<path d="M7.71532 0.534027C7.18129 1.06806 7.18129 1.41518 7.18129 41.4408C7.18129 63.6565 7.10118 84.9911 6.99438 88.8361L6.83417 95.8319L3.897 95.912C1.03993 95.9921 0.959823 96.0188 0.39909 96.7398C-0.10824 97.434 -0.10824 97.5408 0.265582 98.2084C0.666105 98.9293 0.692807 98.9293 3.76349 99.0094L6.86087 99.0895L7.02108 99.9173C7.10118 100.398 7.4483 101.039 7.76872 101.386L8.32946 102H54.7635H101.198L101.838 101.332C102.266 100.932 102.506 100.371 102.506 99.8639V99.0628H105.577C108.594 99.0628 108.647 99.0628 109.101 98.3686C109.502 97.7277 109.502 97.5942 109.155 96.9534C108.781 96.2859 108.701 96.2592 105.63 96.1791L102.506 96.099V48.5969C102.506 1.41518 102.506 1.06806 101.972 0.534027C101.438 0 101.091 0 54.8436 0C8.59647 0 8.24935 0 7.71532 0.534027ZM53.108 50.8665V98.7958H31.5598H9.98495L10.0651 51L10.1185 3.20419L31.5598 3.12408C43.3352 3.09738 53.0012 3.04398 53.0546 2.99057C53.0813 2.96387 53.108 24.512 53.108 50.8665ZM99.3017 51V98.7958H77.8069H56.3122V51V3.20419H77.8069H99.3017V51Z" fill="black"/>
<path d="M15.9128 8.75784C15.5122 9.21177 15.4588 12.6296 15.4588 51.1599L15.4321 93.0547L16.0196 93.5086C16.5536 93.9626 17.7285 93.9893 31.9871 93.9893C47.1269 93.9893 47.4206 93.9893 47.9813 93.4552L48.5688 92.8945L48.6222 51.9877C48.6489 29.4783 48.6489 10.6804 48.6222 10.173C48.5955 9.6657 48.3819 9.05156 48.1416 8.75784C47.7143 8.30392 46.8866 8.27721 32.0138 8.27721C17.1944 8.27721 16.3133 8.30392 15.9128 8.75784ZM45.6316 51.1332V90.7851H32.0138H18.396V51.1332V11.4814H32.0138H45.6316V51.1332Z" fill="black"/>
<path d="M38.9559 46.7812C37.3271 47.609 36.5527 48.8372 36.5527 50.5728C36.5527 53.0294 38.315 54.7383 40.9051 54.7383C42.4538 54.7383 43.7088 53.8838 44.5098 52.3351C45.5779 50.2257 44.7234 47.7959 42.5339 46.7278C41.1454 46.0336 40.3978 46.0603 38.9559 46.7812ZM41.5726 49.7184C42.0266 50.1723 41.9732 51.1336 41.4925 51.5341C40.4779 52.3618 38.9292 50.8132 39.7569 49.7985C40.1574 49.3179 41.1187 49.2645 41.5726 49.7184Z" fill="black"/>
<path d="M61.3856 8.81125C60.8516 9.34528 60.8516 9.6924 60.8516 51.1332C60.8516 92.5741 60.8516 92.9212 61.3856 93.4552C61.9196 93.9893 62.2667 93.9893 77.4065 93.9893H92.9201L93.561 93.3217L94.2285 92.6809V50.9997C94.2285 9.6924 94.2285 9.34528 93.6945 8.81125C93.1605 8.27721 92.8133 8.27721 77.54 8.27721C62.2667 8.27721 61.9196 8.27721 61.3856 8.81125ZM91.0243 51.1332V90.7851H77.4065H63.7887V51.1332V11.4814H77.4065H91.0243V51.1332Z" fill="black"/>
<path d="M67.4197 46.4611C66.2983 46.8082 64.8831 48.2768 64.5627 49.4517C64.082 51.2674 65.07 53.4836 66.7255 54.3381C67.8203 54.8988 69.8763 54.8454 70.9176 54.2045C73.2674 52.7894 73.6412 49.7988 71.7721 47.6627C70.6506 46.4077 69.1019 45.9805 67.4197 46.4611ZM69.6093 49.7187C69.7962 49.9056 69.9297 50.2794 69.9297 50.5998C69.9297 50.9202 69.7962 51.2941 69.6093 51.481C69.4223 51.6679 69.0485 51.8014 68.7281 51.8014C68.4077 51.8014 68.0339 51.6679 67.847 51.481C67.66 51.2941 67.5265 50.9202 67.5265 50.5998C67.5265 50.2794 67.66 49.9056 67.847 49.7187C68.0339 49.5318 68.4077 49.3983 68.7281 49.3983C69.0485 49.3983 69.4223 49.5318 69.6093 49.7187Z" fill="black"/>
</svg>
