<svg width="86" height="102" viewBox="0 0 86 102" fill="none" xmlns="http://www.w3.org/2000/svg">
<path d="M21.8419 0.215561C6.6717 0.348473 6.32752 0.348473 5.10967 0.933296C3.36232 1.73078 1.5885 3.48525 0.7413 5.23972L0 6.72836V50.856V94.9836L0.68835 96.4722C1.66793 98.5723 3.0711 100.008 5.10967 101.018L6.8835 101.895L22.6096 101.975C39.6331 102.055 39.9243 102.028 42.2011 100.593C43.6043 99.6887 45.0869 97.9343 45.9076 96.2064L46.596 94.7177L46.6754 69.4108L46.7284 44.1039L63.3547 44.0242C79.8751 43.9444 79.9545 43.9444 81.04 43.3596C83.4757 42.057 84.9318 40.0101 85.276 37.405C85.6731 34.5607 83.6875 31.2644 80.8282 29.9618L79.425 29.3238L63.1164 29.4302L46.8078 29.5099L46.6489 18.3983C46.4901 6.09038 46.4901 6.0638 44.7427 3.67133C43.4984 1.97003 41.6452 0.826965 39.4213 0.348473C38.4152 0.135811 37.5415 -0.0236893 37.4621 0.00289154C37.3827 0.0560608 30.3668 0.135811 21.8419 0.215561ZM39.3419 3.53842C40.9039 4.09666 42.1217 5.10681 42.8365 6.40937C43.419 7.49927 43.419 7.7651 43.5514 18.5046L43.6838 29.4567H39.5801H35.4765L34.6822 28.101C33.5703 26.187 31.3199 24.2199 29.0166 23.13C27.2428 22.2794 26.7927 22.173 24.2511 22.0667C21.8683 21.9869 21.18 22.0401 19.7503 22.5186C14.4289 24.3528 10.7224 29.2441 10.2988 35.0391C9.66337 43.2533 17.0499 50.6433 24.9924 49.7927C28.3812 49.4205 30.9228 48.1445 33.4909 45.5394L34.9205 44.0773H39.236H43.5514V69.145V94.2127L42.7042 95.6481C42.1217 96.6317 41.4069 97.3494 40.5332 97.9077L39.236 98.7052L23.7216 98.7849C9.79575 98.8381 8.10135 98.8115 7.04235 98.4128C5.58623 97.8545 4.236 96.6583 3.4947 95.276L2.91225 94.1861L2.83282 51.3876C2.77988 12.4171 2.80635 8.48283 3.20347 7.44611C3.73298 6.03721 4.60665 4.94731 5.90392 4.14983C6.85702 3.565 7.14825 3.53842 14.1641 3.4055C30.6845 3.05993 38.124 3.11309 39.3419 3.53842ZM27.534 25.7351C28.6459 26.187 29.5196 26.7719 30.5786 27.8352L32.0347 29.3238L27.9311 29.4567C23.3774 29.6162 22.6096 29.8289 20.8623 31.3973C17.7382 34.2417 17.6323 38.8139 20.624 41.8178C22.4773 43.6786 23.7216 44.0773 27.7723 44.0773L30.9757 44.1039L29.5196 45.0343C24.1452 48.4635 17.0499 46.4432 14.3759 40.7279C12.8668 37.4848 12.8139 34.348 14.27 31.158C14.9848 29.5897 16.9175 27.3833 18.3207 26.506C20.9682 24.8579 24.4629 24.5655 27.534 25.7351ZM79.8221 32.9657C81.5695 33.8695 82.2843 35.0657 82.1519 36.8999C82.0195 38.6278 81.4636 39.5317 79.9545 40.4089L78.8955 41.0203H51.891C25.0189 41.0203 24.8865 41.0203 23.8275 40.4621C22.3184 39.6912 21.5771 38.4683 21.5771 36.8202C21.5771 35.2518 22.292 33.9227 23.5098 33.2315C24.6217 32.6467 29.8108 32.5138 57.4507 32.434L78.6572 32.3809L79.8221 32.9657Z" fill="black"/>
<path d="M21.4804 58.6126C18.0053 59.4798 15.6433 62.4231 15.6433 65.9183C15.6433 67.4163 16.4578 69.4398 17.6252 70.8327L18.5754 71.9364L18.684 75.6681C18.7655 78.9268 18.8198 79.4524 19.3356 80.1094C20.3673 81.4497 21.5347 82.0278 23.2451 82.0278C24.9555 82.0278 26.123 81.4497 27.1546 80.1094C27.6705 79.4524 27.7248 78.9268 27.8062 75.5367L27.9148 71.6736L28.8379 70.5961C30.0325 69.177 30.5755 67.6265 30.5755 65.6293C30.5483 61.9238 27.6162 58.8491 23.7338 58.5337C22.9465 58.4549 21.942 58.4812 21.4804 58.6126ZM25.4171 62.1078C26.8288 63.0538 27.399 63.9736 27.5076 65.5241C27.6433 67.1798 27.0189 68.4938 25.7429 69.2821L24.9012 69.8077L24.8741 73.8811C24.8741 78.4538 24.6569 79.1371 23.2723 79.1371C21.8334 79.1371 21.6705 78.6115 21.5619 74.1439L21.4804 70.0443L20.2044 68.8879C18.6569 67.4426 18.3039 65.9972 19.0641 64.1839C20.0687 61.7661 23.2723 60.7149 25.4171 62.1078Z" fill="black"/>
</svg>
