<svg width="90" height="102" viewBox="0 0 90 102" fill="none" xmlns="http://www.w3.org/2000/svg">
<path d="M8.16362 0.192673C7.84213 0.32663 7.46706 0.674911 7.30631 0.969612C7.09198 1.34469 7.01161 16.2405 7.01161 50.1312V98.7838H4.11817C0.822874 98.7838 0.0459337 99.0785 0.0459337 100.391C0.0459337 102.106 -3.19578 101.999 44.787 101.999C83.768 101.999 88.4028 101.945 88.9387 101.57C89.6888 101.061 89.7156 100.043 88.9922 99.3196C88.51 98.8373 88.1081 98.7838 85.3754 98.7838H82.2945V49.9437V1.07677L81.7319 0.567749C81.1692 0.0855103 80.1512 0.0587158 44.9477 0.00513458C24.4258 -0.0216599 8.51191 0.0587158 8.16362 0.192673ZM79.0795 33.869C79.0795 50.801 79.1599 72.3142 79.2671 81.6911L79.4278 98.7838H77.2578H75.0609V53.5069C75.0609 8.57827 75.0609 8.22999 74.5251 7.69417C73.9892 7.15835 73.641 7.15835 44.5191 7.15835H15.0489L14.6203 7.82812C14.2184 8.44431 14.1916 12.3022 14.272 53.6408L14.3791 98.7838H12.343H10.3069L10.1462 96.1582C9.90504 92.7558 9.90504 10.6144 10.1462 6.4082L10.3069 3.13969H44.7066H79.0795V33.869ZM70.6136 10.2661L71.846 10.4536V54.6053V98.7838H44.653H17.4601V54.4446V10.1054H43.4206C57.6735 10.1054 69.917 10.1857 70.6136 10.2661Z" fill="black"/>
</svg>
