<svg width="86" height="86" viewBox="0 0 86 86" fill="none" xmlns="http://www.w3.org/2000/svg">
<g clip-path="url(#clip0_15_124)">
<path d="M29.3999 56.7762C30.0566 57.4317 31.1202 57.4317 31.775 56.7762C32.4318 56.1194 32.4318 55.0565 31.775 54.401C31.1202 53.7442 30.0566 53.7442 29.3999 54.401C28.745 55.0565 28.745 56.1194 29.3999 56.7762Z" fill="black"/>
<path d="M36.5281 52.0245L52.6013 35.9408C53.2567 35.2847 53.2567 34.2211 52.6006 33.565C51.9438 32.9095 50.8809 32.9102 50.2248 33.5656L34.1516 49.6493C33.4954 50.3055 33.4961 51.3691 34.1522 52.0252C34.8083 52.6807 35.8719 52.6807 36.5281 52.0245Z" fill="black"/>
<path d="M26.4584 45.4652L11.9914 59.9322C11.8307 60.093 11.6968 60.295 11.6109 60.5214C11.6082 60.5267 11.6056 60.5319 11.6037 60.5372C10.2678 64.1498 6.21486 75.1085 4.62047 79.4193C4.39345 80.0347 4.54501 80.7269 5.00955 81.1901C5.47015 81.6507 6.16171 81.8063 6.7811 81.5766C10.9593 80.0249 22.0177 75.9175 25.6409 74.5718C25.8522 74.4937 26.0726 74.3566 26.2439 74.1853L40.7096 59.7196L66.5014 85.6577C66.817 85.9746 67.2454 86.1531 67.6929 86.1531H67.6942C68.1417 86.1525 68.5708 85.9733 68.8857 85.6558L85.5134 68.8733C86.1643 68.2165 86.1616 67.1575 85.5081 66.5033C84.226 65.2213 60.7353 41.7292 59.7176 40.7115C64.1039 36.3253 74.6761 25.7531 78.708 21.7212C82.6474 17.7864 82.65 11.4049 78.7086 7.46807C74.7712 3.52867 68.3956 3.52802 64.4555 7.46807L45.4632 26.4604C44.4895 25.4867 21.1307 2.12718 19.6629 0.660073C19.0094 0.00591186 17.9504 0.00328735 17.2936 0.654168L0.498004 17.2798C0.179781 17.5948 0.000657932 18.0239 1.8028e-06 18.472C-0.000654327 18.9195 0.177813 19.3493 0.49538 19.6649L26.4584 45.4652ZM46.6508 30.0238C46.6508 30.0238 46.6515 30.0232 46.6515 30.0225L57.1259 19.5487L66.6273 29.0508L56.1549 39.5226C56.1549 39.5233 56.1555 39.5226 56.1549 39.5226L56.1542 39.5239L25.0563 70.6219L15.5549 61.1198L46.6508 30.0238ZM63.0652 13.6094L72.5666 23.1115L69.0032 26.675L59.5011 17.1735L63.0652 13.6094ZM15.0897 74.907L11.2802 71.0976L13.845 64.1616L22.0177 72.3344L15.0897 74.907ZM9.99745 74.5659L11.6253 76.1937L9.04016 77.1536L9.99745 74.5659ZM61.2385 46.9835L54.0415 54.1793C53.3853 54.8347 53.3853 55.8983 54.0415 56.5544C54.6969 57.2106 55.7605 57.2106 56.4166 56.5551L63.6137 49.3593L68.7007 54.4463L63.8795 59.2669C63.224 59.923 63.224 60.9866 63.8795 61.6427C64.5356 62.2989 65.5992 62.2982 66.2553 61.6427L71.0765 56.8215L76.1642 61.9098L68.9678 69.1056C68.3116 69.761 68.3116 70.8246 68.9678 71.4807C69.6232 72.1369 70.6868 72.1369 71.3429 71.4807L78.54 64.2856L81.9506 67.6968C67.767 81.8679 67.6909 82.0891 67.6909 82.0891L43.0854 57.3438L57.3424 43.0867L61.2385 46.9835ZM76.3335 9.84392C78.9593 12.4665 78.9606 16.7202 76.3328 19.3453L74.9425 20.7357L65.4404 11.2343L66.8314 9.84326C69.4566 7.21743 73.707 7.21546 76.3335 9.84392ZM22.2172 7.96542L15.0214 15.1592C14.366 15.8147 14.366 16.8783 15.0214 17.5344C15.6776 18.1905 16.7411 18.1905 17.3973 17.5351L24.5931 10.3406L29.68 15.4282L24.8601 20.2469C24.204 20.903 24.204 21.9666 24.8594 22.6227C25.5156 23.2782 26.5785 23.2788 27.2353 22.6227L32.0559 17.8034L36.8043 22.5525L29.6098 29.7476C28.9543 30.4037 28.9543 31.4673 29.6098 32.1235C30.2659 32.7789 31.3295 32.7796 31.9857 32.1228L39.1801 24.9277L43.088 28.8356L28.8336 43.09L4.06472 18.476C4.06472 18.476 4.29765 18.3999 18.4694 4.21695L22.2172 7.96542Z" fill="black"/>
</g>
<defs>
<clipPath id="clip0_15_124">
<rect width="86" height="86" fill="white"/>
</clipPath>
</defs>
</svg>
